<svg width="24" height="107" viewBox="0 0 24 107" fill="none" xmlns="http://www.w3.org/2000/svg">
<rect x="11" y="15" width="2" height="92" rx="1" fill="url(#paint0_linear_688_1588)"/>
<circle cx="12" cy="12" r="12" fill="#9747FF"/>
<path d="M12.1104 13.0042C11.9882 13.0042 11.8736 12.9851 11.7667 12.9469C11.6597 12.9087 11.5604 12.8438 11.4688 12.7521L7.25208 8.53542C7.08403 8.36736 7 8.15347 7 7.89375C7 7.63403 7.08403 7.42014 7.25208 7.25208C7.42014 7.08403 7.63403 7 7.89375 7C8.15347 7 8.36736 7.08403 8.53542 7.25208L12.1104 10.8271L15.6854 7.25208C15.8535 7.08403 16.0674 7 16.3271 7C16.5868 7 16.8007 7.08403 16.9688 7.25208C17.1368 7.42014 17.2208 7.63403 17.2208 7.89375C17.2208 8.15347 17.1368 8.36736 16.9688 8.53542L12.7521 12.7521C12.6604 12.8438 12.5611 12.9087 12.4542 12.9469C12.3472 12.9851 12.2326 13.0042 12.1104 13.0042Z" fill="white"/>
<path opacity="0.6" d="M12.1104 19.0081C11.9882 19.0081 11.8736 18.989 11.7667 18.9508C11.6597 18.9126 11.5604 18.8477 11.4688 18.756L7.25208 14.5393C7.08403 14.3713 7 14.1574 7 13.8977C7 13.6379 7.08403 13.424 7.25208 13.256C7.42014 13.0879 7.63403 13.0039 7.89375 13.0039C8.15347 13.0039 8.36736 13.0879 8.53542 13.256L12.1104 16.831L15.6854 13.256C15.8535 13.0879 16.0674 13.0039 16.3271 13.0039C16.5868 13.0039 16.8007 13.0879 16.9688 13.256C17.1368 13.424 17.2208 13.6379 17.2208 13.8977C17.2208 14.1574 17.1368 14.3713 16.9688 14.5393L12.7521 18.756C12.6604 18.8477 12.5611 18.9126 12.4542 18.9508C12.3472 18.989 12.2326 19.0081 12.1104 19.0081Z" fill="white"/>
<defs>
<linearGradient id="paint0_linear_688_1588" x1="12" y1="15" x2="12" y2="107" gradientUnits="userSpaceOnUse">
<stop stop-color="#9747FF"/>
<stop offset="1" stop-color="#5B2B99" stop-opacity="0"/>
</linearGradient>
</defs>
</svg>
