<svg width="30" height="15" viewBox="0 0 30 15" fill="none" xmlns="http://www.w3.org/2000/svg">
<path d="M1 6.36377C0.447715 6.36377 0 6.81148 0 7.36377C0 7.91605 0.447715 8.36377 1 8.36377V7.36377V6.36377ZM29.7071 8.07088C30.0976 7.68035 30.0976 7.04719 29.7071 6.65666L23.3431 0.292702C22.9526 -0.0978227 22.3195 -0.0978227 21.9289 0.292702C21.5384 0.683226 21.5384 1.31639 21.9289 1.70692L27.5858 7.36377L21.9289 13.0206C21.5384 13.4111 21.5384 14.0443 21.9289 14.4348C22.3195 14.8254 22.9526 14.8254 23.3431 14.4348L29.7071 8.07088ZM1 7.36377V8.36377H29V7.36377V6.36377H1V7.36377Z" fill="url(#paint0_linear_632_2557)"/>
<defs>
<linearGradient id="paint0_linear_632_2557" x1="-43.5" y1="7.36377" x2="39" y2="7.36377" gradientUnits="userSpaceOnUse">
<stop stop-color="#9747FF" stop-opacity="0"/>
<stop offset="1" stop-color="#240457"/>
</linearGradient>
</defs>
</svg>
