<svg width="30" height="30" viewBox="0 0 30 30" fill="none" xmlns="http://www.w3.org/2000/svg">
<path d="M4.36364 25C3.71364 25 3.1572 24.7581 2.69432 24.2743C2.23144 23.7904 2 23.2088 2 22.5294C2 21.85 2.23144 21.2684 2.69432 20.7846C3.1572 20.3007 3.71364 20.0588 4.36364 20.0588C4.48182 20.0588 4.58523 20.0588 4.67386 20.0588C4.7625 20.0588 4.85606 20.0794 4.95455 20.1206L10.3318 14.5C10.2924 14.3971 10.2727 14.2993 10.2727 14.2066C10.2727 14.114 10.2727 14.0059 10.2727 13.8824C10.2727 13.2029 10.5042 12.6213 10.967 12.1375C11.4299 11.6537 11.9864 11.4118 12.6364 11.4118C13.2864 11.4118 13.8428 11.6537 14.3057 12.1375C14.7686 12.6213 15 13.2029 15 13.8824C15 13.9235 14.9803 14.1294 14.9409 14.5L17.9545 17.65C18.053 17.6088 18.1466 17.5882 18.2352 17.5882C18.3239 17.5882 18.4273 17.5882 18.5455 17.5882C18.6636 17.5882 18.767 17.5882 18.8557 17.5882C18.9443 17.5882 19.0379 17.6088 19.1364 17.65L23.3318 13.2647C23.2924 13.1618 23.2727 13.064 23.2727 12.9713C23.2727 12.8787 23.2727 12.7706 23.2727 12.6471C23.2727 11.9676 23.5042 11.386 23.967 10.9022C24.4299 10.4184 24.9864 10.1765 25.6364 10.1765C26.2864 10.1765 26.8428 10.4184 27.3057 10.9022C27.7686 11.386 28 11.9676 28 12.6471C28 13.3265 27.7686 13.9081 27.3057 14.3919C26.8428 14.8757 26.2864 15.1176 25.6364 15.1176C25.5182 15.1176 25.4148 15.1176 25.3261 15.1176C25.2375 15.1176 25.1439 15.0971 25.0455 15.0559L20.85 19.4412C20.8894 19.5441 20.9091 19.6419 20.9091 19.7346C20.9091 19.8272 20.9091 19.9353 20.9091 20.0588C20.9091 20.7382 20.6777 21.3199 20.2148 21.8037C19.7519 22.2875 19.1955 22.5294 18.5455 22.5294C17.8955 22.5294 17.339 22.2875 16.8761 21.8037C16.4133 21.3199 16.1818 20.7382 16.1818 20.0588C16.1818 19.9353 16.1818 19.8272 16.1818 19.7346C16.1818 19.6419 16.2015 19.5441 16.2409 19.4412L13.2273 16.2912C13.1288 16.3324 13.0352 16.3529 12.9466 16.3529C12.858 16.3529 12.7545 16.3529 12.6364 16.3529C12.597 16.3529 12.4 16.3324 12.0455 16.2912L6.66818 21.9118C6.70758 22.0147 6.72727 22.1125 6.72727 22.2051C6.72727 22.2978 6.72727 22.4059 6.72727 22.5294C6.72727 23.2088 6.49583 23.7904 6.03295 24.2743C5.57008 24.7581 5.01364 25 4.36364 25ZM5.54545 12.6162L4.80682 10.9485L3.21136 10.1765L4.80682 9.40441L5.54545 7.73676L6.28409 9.40441L7.87955 10.1765L6.28409 10.9485L5.54545 12.6162ZM18.5455 11.4118L17.4227 8.87941L15 7.70588L17.4227 6.53235L18.5455 4L19.6682 6.53235L22.0909 7.70588L19.6682 8.87941L18.5455 11.4118Z" fill="#240457"/>
</svg>
