<svg width="30" height="30" viewBox="0 0 30 30" fill="none" xmlns="http://www.w3.org/2000/svg">
<path d="M5.4 27C4.74 27 4.175 26.765 3.705 26.295C3.235 25.825 3 25.26 3 24.6V11.4C3 10.74 3.235 10.175 3.705 9.705C4.175 9.235 4.74 9 5.4 9H11.4V5.4C11.4 4.74 11.635 4.175 12.105 3.705C12.575 3.235 13.14 3 13.8 3H16.2C16.86 3 17.425 3.235 17.895 3.705C18.365 4.175 18.6 4.74 18.6 5.4V9H24.6C25.26 9 25.825 9.235 26.295 9.705C26.765 10.175 27 10.74 27 11.4V24.6C27 25.26 26.765 25.825 26.295 26.295C25.825 26.765 25.26 27 24.6 27H5.4ZM5.4 24.6H24.6V11.4H18.6C18.6 12.06 18.365 12.625 17.895 13.095C17.425 13.565 16.86 13.8 16.2 13.8H13.8C13.14 13.8 12.575 13.565 12.105 13.095C11.635 12.625 11.4 12.06 11.4 11.4H5.4V24.6ZM7.8 22.2H15V21.66C15 21.32 14.905 21.005 14.715 20.715C14.525 20.425 14.26 20.2 13.92 20.04C13.52 19.86 13.115 19.725 12.705 19.635C12.295 19.545 11.86 19.5 11.4 19.5C10.94 19.5 10.505 19.545 10.095 19.635C9.685 19.725 9.28 19.86 8.88 20.04C8.54 20.2 8.275 20.425 8.085 20.715C7.895 21.005 7.8 21.32 7.8 21.66V22.2ZM17.4 20.4H22.2V18.6H17.4V20.4ZM11.4 18.6C11.9 18.6 12.325 18.425 12.675 18.075C13.025 17.725 13.2 17.3 13.2 16.8C13.2 16.3 13.025 15.875 12.675 15.525C12.325 15.175 11.9 15 11.4 15C10.9 15 10.475 15.175 10.125 15.525C9.775 15.875 9.6 16.3 9.6 16.8C9.6 17.3 9.775 17.725 10.125 18.075C10.475 18.425 10.9 18.6 11.4 18.6ZM17.4 16.8H22.2V15H17.4V16.8ZM13.8 11.4H16.2V5.4H13.8V11.4Z" fill="#240457"/>
</svg>
