<svg width="23" height="18" viewBox="0 0 23 18" fill="none" xmlns="http://www.w3.org/2000/svg">
<path d="M5.22727 18C4.35606 18 3.61553 17.6719 3.00568 17.0156C2.39583 16.3594 2.09091 15.5625 2.09091 14.625H0V2.25C0 1.63125 0.204735 1.10156 0.614204 0.660937C1.02367 0.220312 1.51591 0 2.09091 0H16.7273V4.5H19.8636L23 9V14.625H20.9091C20.9091 15.5625 20.6042 16.3594 19.9943 17.0156C19.3845 17.6719 18.6439 18 17.7727 18C16.9015 18 16.161 17.6719 15.5511 17.0156C14.9413 16.3594 14.6364 15.5625 14.6364 14.625H8.36364C8.36364 15.5625 8.05871 16.3594 7.44886 17.0156C6.83902 17.6719 6.09848 18 5.22727 18ZM5.22727 15.75C5.52348 15.75 5.77178 15.6422 5.97216 15.4266C6.17254 15.2109 6.27273 14.9438 6.27273 14.625C6.27273 14.3062 6.17254 14.0391 5.97216 13.8234C5.77178 13.6078 5.52348 13.5 5.22727 13.5C4.93106 13.5 4.68277 13.6078 4.48239 13.8234C4.28201 14.0391 4.18182 14.3062 4.18182 14.625C4.18182 14.9438 4.28201 15.2109 4.48239 15.4266C4.68277 15.6422 4.93106 15.75 5.22727 15.75ZM2.09091 12.375H2.92727C3.22348 12.0375 3.56326 11.7656 3.94659 11.5594C4.32992 11.3531 4.75682 11.25 5.22727 11.25C5.69773 11.25 6.12462 11.3531 6.50795 11.5594C6.89129 11.7656 7.23106 12.0375 7.52727 12.375H14.6364V2.25H2.09091V12.375ZM17.7727 15.75C18.0689 15.75 18.3172 15.6422 18.5176 15.4266C18.718 15.2109 18.8182 14.9438 18.8182 14.625C18.8182 14.3062 18.718 14.0391 18.5176 13.8234C18.3172 13.6078 18.0689 13.5 17.7727 13.5C17.4765 13.5 17.2282 13.6078 17.0278 13.8234C16.8275 14.0391 16.7273 14.3062 16.7273 14.625C16.7273 14.9438 16.8275 15.2109 17.0278 15.4266C17.2282 15.6422 17.4765 15.75 17.7727 15.75ZM16.7273 10.125H21.1705L18.8182 6.75H16.7273V10.125Z" fill="#240457"/>
</svg>
