<svg width="46" height="46" viewBox="0 0 46 46" fill="none" xmlns="http://www.w3.org/2000/svg">
<path d="M0 8C0 3.58172 3.58172 0 8 0H38C42.4183 0 46 3.58172 46 8V38C46 42.4183 42.4183 46 38 46H8C3.58172 46 0 42.4183 0 38V8Z" fill="#DFEDFF"/>
<path d="M23.001 13.3531C25.8718 14.1656 29.0135 15.1406 30.5843 15.6823V24.1865C30.5843 26.0281 28.5801 29.2781 23.001 32.5281C17.4218 29.224 15.4176 26.0281 15.4176 24.1865V15.6823C16.9885 15.0865 20.1301 14.1656 23.001 13.3531ZM23.001 11.0781C23.001 11.0781 13.251 13.8406 13.251 14.3281V24.1865C13.251 29.1698 20.4551 33.5573 22.4593 34.749C22.6196 34.8561 22.8081 34.9133 23.001 34.9133C23.1938 34.9133 23.3823 34.8561 23.5426 34.749C25.601 33.6115 32.751 29.1698 32.751 24.1865V14.3281C32.751 13.8406 23.001 11.0781 23.001 11.0781Z" fill="#185ADB" stroke="#185ADB" stroke-width="0.00064"/>
</svg>
