<svg width="30" height="30" viewBox="0 0 30 30" fill="none" xmlns="http://www.w3.org/2000/svg">
<g clip-path="url(#clip0_7872_36969)">
<path d="M26.8654 17.4756C26.2924 16.6909 25.967 15.9043 25.9684 14.9998C25.967 14.0948 26.2924 13.3096 26.8654 12.5244C27.4398 11.7491 28.2556 10.9809 29.2696 10.3641C28.0863 10.4598 26.9748 10.3174 26.0543 10.0274C25.1294 9.72984 24.4051 9.28365 23.8751 8.5541C23.3441 7.82502 23.1412 6.99738 23.1431 6.02549C23.1507 5.06057 23.3601 3.95941 23.8185 2.86441C22.9178 3.63732 21.9349 4.17445 21.0186 4.47914C20.0938 4.78002 19.2454 4.84418 18.3909 4.56545C17.5345 4.28865 16.8866 3.73828 16.3145 2.95213C15.7524 2.16791 15.2723 1.15488 14.9997 0C14.7272 1.15488 14.2475 2.16791 13.685 2.95213C13.1134 3.73822 12.4645 4.28865 11.6086 4.56545C10.7536 4.84418 9.90566 4.78002 8.98135 4.47914C8.06506 4.17445 7.08227 3.63785 6.1815 2.86441C6.63988 3.95941 6.84883 5.06057 6.85639 6.02549C6.85779 6.99744 6.65553 7.82502 6.12449 8.5541C5.59393 9.28365 4.87006 9.72978 3.9448 10.0274C3.02523 10.3174 1.91365 10.4598 0.730469 10.3641C1.74437 10.9809 2.56023 11.7491 3.13422 12.5244C3.70768 13.3096 4.03258 14.0948 4.03164 14.9998C4.03258 15.9043 3.70768 16.6909 3.13422 17.4756C2.56029 18.2509 1.74437 19.0186 0.730469 19.6359C1.91371 19.5402 3.02523 19.6822 3.9448 19.9722C4.87006 20.2702 5.59393 20.7163 6.12449 21.446C6.65553 22.1746 6.85779 23.0027 6.85639 23.9751C6.84883 24.9404 6.63988 26.0406 6.1815 27.1356C7.08227 26.3622 8.065 25.8255 8.98135 25.5209C9.90561 25.2201 10.7536 25.1559 11.6086 25.4346C12.4645 25.7115 13.1134 26.2618 13.685 27.0479C14.2476 27.8326 14.7272 28.8451 14.9997 30C15.2723 28.8451 15.7524 27.8326 16.3145 27.0479C16.8866 26.2618 17.5346 25.7114 18.3909 25.4346C19.2459 25.1559 20.0938 25.22 21.0186 25.5209C21.9349 25.8256 22.9178 26.3622 23.8185 27.1356C23.3601 26.0406 23.1507 24.9404 23.1431 23.9746C23.1412 23.0026 23.344 22.1746 23.8751 21.446C24.4056 20.7163 25.1294 20.2703 26.0543 19.9722C26.9748 19.6822 28.0863 19.5403 29.2696 19.6359C28.2556 19.0187 27.4397 18.2509 26.8654 17.4756ZM14.9997 23.2446C10.447 23.2446 6.75549 19.553 6.75549 14.9998C6.75549 10.4466 10.4471 6.75551 14.9997 6.75551C19.5534 6.75551 23.244 10.4466 23.244 14.9998C23.2441 19.553 19.5534 23.2446 14.9997 23.2446Z" fill="#FF8D28"/>
</g>
<defs>
<clipPath id="clip0_7872_36969">
<rect width="30" height="30" fill="white"/>
</clipPath>
</defs>
</svg>
