<svg width="23" height="23" viewBox="0 0 23 23" fill="none" xmlns="http://www.w3.org/2000/svg">
<path d="M11.25 22.5C9.70833 22.5 8.25521 22.2031 6.89062 21.6094C5.52604 21.0156 4.33333 20.2083 3.3125 19.1875C2.29167 18.1667 1.48438 16.974 0.890625 15.6094C0.296875 14.2448 0 12.7917 0 11.25C0 9.625 0.3125 8.10417 0.9375 6.6875C1.5625 5.27083 2.4375 4.05208 3.5625 3.03125C3.8125 2.80208 4.10938 2.69271 4.45312 2.70312C4.79688 2.71354 5.08333 2.83333 5.3125 3.0625L12.125 9.875C12.3542 10.1042 12.4688 10.3958 12.4688 10.75C12.4688 11.1042 12.3542 11.3958 12.125 11.625C11.8958 11.8542 11.6042 11.9688 11.25 11.9688C10.8958 11.9688 10.6042 11.8542 10.375 11.625L4.5 5.75C3.875 6.5 3.38542 7.33854 3.03125 8.26562C2.67708 9.19271 2.5 10.1875 2.5 11.25C2.5 13.6667 3.35417 15.7292 5.0625 17.4375C6.77083 19.1458 8.83333 20 11.25 20C13.6667 20 15.7292 19.1458 17.4375 17.4375C19.1458 15.7292 20 13.6667 20 11.25C20 9.02083 19.2865 7.09896 17.8594 5.48438C16.4323 3.86979 14.6458 2.91667 12.5 2.625V3.75C12.5 4.10417 12.3802 4.40104 12.1406 4.64062C11.901 4.88021 11.6042 5 11.25 5C10.8958 5 10.599 4.88021 10.3594 4.64062C10.1198 4.40104 10 4.10417 10 3.75V1.25C10 0.895833 10.1198 0.598958 10.3594 0.359375C10.599 0.119792 10.8958 0 11.25 0C12.7917 0 14.2448 0.296875 15.6094 0.890625C16.974 1.48438 18.1667 2.29167 19.1875 3.3125C20.2083 4.33333 21.0156 5.52604 21.6094 6.89062C22.2031 8.25521 22.5 9.70833 22.5 11.25C22.5 12.7917 22.2031 14.2448 21.6094 15.6094C21.0156 16.974 20.2083 18.1667 19.1875 19.1875C18.1667 20.2083 16.974 21.0156 15.6094 21.6094C14.2448 22.2031 12.7917 22.5 11.25 22.5ZM5 12.5C4.64583 12.5 4.34896 12.3802 4.10938 12.1406C3.86979 11.901 3.75 11.6042 3.75 11.25C3.75 10.8958 3.86979 10.599 4.10938 10.3594C4.34896 10.1198 4.64583 10 5 10C5.35417 10 5.65104 10.1198 5.89062 10.3594C6.13021 10.599 6.25 10.8958 6.25 11.25C6.25 11.6042 6.13021 11.901 5.89062 12.1406C5.65104 12.3802 5.35417 12.5 5 12.5ZM11.25 18.75C10.8958 18.75 10.599 18.6302 10.3594 18.3906C10.1198 18.151 10 17.8542 10 17.5C10 17.1458 10.1198 16.849 10.3594 16.6094C10.599 16.3698 10.8958 16.25 11.25 16.25C11.6042 16.25 11.901 16.3698 12.1406 16.6094C12.3802 16.849 12.5 17.1458 12.5 17.5C12.5 17.8542 12.3802 18.151 12.1406 18.3906C11.901 18.6302 11.6042 18.75 11.25 18.75ZM17.5 12.5C17.1458 12.5 16.849 12.3802 16.6094 12.1406C16.3698 11.901 16.25 11.6042 16.25 11.25C16.25 10.8958 16.3698 10.599 16.6094 10.3594C16.849 10.1198 17.1458 10 17.5 10C17.8542 10 18.151 10.1198 18.3906 10.3594C18.6302 10.599 18.75 10.8958 18.75 11.25C18.75 11.6042 18.6302 11.901 18.3906 12.1406C18.151 12.3802 17.8542 12.5 17.5 12.5Z" fill="#9747FF"/>
</svg>
