<svg width="20" height="25" viewBox="0 0 20 25" fill="none" xmlns="http://www.w3.org/2000/svg">
<path d="M10 24.6875C9.85417 24.6875 9.71875 24.6771 9.59375 24.6562C9.46875 24.6354 9.34375 24.6042 9.21875 24.5625C6.40625 23.625 4.16667 21.8906 2.5 19.3594C0.833333 16.8281 0 14.1042 0 11.1875V5.28125C0 4.76042 0.151042 4.29167 0.453125 3.875C0.755208 3.45833 1.14583 3.15625 1.625 2.96875L9.125 0.15625C9.41667 0.0520833 9.70833 0 10 0C10.2917 0 10.5833 0.0520833 10.875 0.15625L18.375 2.96875C18.8542 3.15625 19.2448 3.45833 19.5469 3.875C19.849 4.29167 20 4.76042 20 5.28125V11.1875C20 14.1042 19.1667 16.8281 17.5 19.3594C15.8333 21.8906 13.5938 23.625 10.7812 24.5625C10.6562 24.6042 10.5312 24.6354 10.4062 24.6562C10.2812 24.6771 10.1458 24.6875 10 24.6875ZM10 22.1875C12.1667 21.5 13.9583 20.125 15.375 18.0625C16.7917 16 17.5 13.7083 17.5 11.1875V5.28125L10 2.46875L2.5 5.28125V11.1875C2.5 13.7083 3.20833 16 4.625 18.0625C6.04167 20.125 7.83333 21.5 10 22.1875Z" fill="#9747FF"/>
</svg>
