<svg width="20" height="25" viewBox="0 0 20 25" fill="none" xmlns="http://www.w3.org/2000/svg">
<path d="M8.75 20V20.625C8.75 20.7917 8.8125 20.9375 8.9375 21.0625C9.0625 21.1875 9.20833 21.25 9.375 21.25H10.625C10.7917 21.25 10.9375 21.1875 11.0625 21.0625C11.1875 20.9375 11.25 20.7917 11.25 20.625V20H12.5C12.8542 20 13.151 19.8802 13.3906 19.6406C13.6302 19.401 13.75 19.1042 13.75 18.75V15C13.75 14.6458 13.6302 14.349 13.3906 14.1094C13.151 13.8698 12.8542 13.75 12.5 13.75H8.75V12.5H12.5C12.8542 12.5 13.151 12.3802 13.3906 12.1406C13.6302 11.901 13.75 11.6042 13.75 11.25C13.75 10.8958 13.6302 10.599 13.3906 10.3594C13.151 10.1198 12.8542 10 12.5 10H11.25V9.375C11.25 9.20833 11.1875 9.0625 11.0625 8.9375C10.9375 8.8125 10.7917 8.75 10.625 8.75H9.375C9.20833 8.75 9.0625 8.8125 8.9375 8.9375C8.8125 9.0625 8.75 9.20833 8.75 9.375V10H7.5C7.14583 10 6.84896 10.1198 6.60938 10.3594C6.36979 10.599 6.25 10.8958 6.25 11.25V15C6.25 15.3542 6.36979 15.651 6.60938 15.8906C6.84896 16.1302 7.14583 16.25 7.5 16.25H11.25V17.5H7.5C7.14583 17.5 6.84896 17.6198 6.60938 17.8594C6.36979 18.099 6.25 18.3958 6.25 18.75C6.25 19.1042 6.36979 19.401 6.60938 19.6406C6.84896 19.8802 7.14583 20 7.5 20H8.75ZM2.5 25C1.8125 25 1.22396 24.7552 0.734375 24.2656C0.244792 23.776 0 23.1875 0 22.5V2.5C0 1.8125 0.244792 1.22396 0.734375 0.734375C1.22396 0.244792 1.8125 0 2.5 0H13.75L20 6.25V22.5C20 23.1875 19.7552 23.776 19.2656 24.2656C18.776 24.7552 18.1875 25 17.5 25H2.5ZM2.5 22.5H17.5V7.5H13.75C13.3958 7.5 13.099 7.38021 12.8594 7.14062C12.6198 6.90104 12.5 6.60417 12.5 6.25V2.5H2.5V22.5Z" fill="#9747FF"/>
</svg>
